<?xml version="1.0" encoding="UTF-8" standalone="no"?>
<svg
   xmlns:dc="http://purl.org/dc/elements/1.1/"
   xmlns:cc="http://creativecommons.org/ns#"
   xmlns:rdf="http://www.w3.org/1999/02/22-rdf-syntax-ns#"
   xmlns:svg="http://www.w3.org/2000/svg"
   xmlns="http://www.w3.org/2000/svg"
   xmlns:sodipodi="http://sodipodi.sourceforge.net/DTD/sodipodi-0.dtd"
   xmlns:inkscape="http://www.inkscape.org/namespaces/inkscape"
   version="1.1"
   id="svg2"
   xml:space="preserve"
   width="1066.6667"
   height="1066.6667"
   viewBox="0 0 1066.6667 1066.6667"
   sodipodi:docname="wind.eps"><metadata
     id="metadata8"><rdf:RDF><cc:Work
         rdf:about=""><dc:format>image/svg+xml</dc:format><dc:type
           rdf:resource="http://purl.org/dc/dcmitype/StillImage" /></cc:Work></rdf:RDF></metadata><defs
     id="defs6" /><sodipodi:namedview
     pagecolor="#ffffff"
     bordercolor="#ffffff"
     borderopacity="1"
     objecttolerance="10"
     gridtolerance="10"
     guidetolerance="10"
     inkscape:pageopacity="0"
     inkscape:pageshadow="2"
     inkscape:window-width="512"
     inkscape:window-height="384"
     id="namedview4" /><g
     id="g10"
     inkscape:groupmode="layer"
     inkscape:label="ink_ext_XXXXXX"
     transform="matrix(1.3333333,0,0,-1.3333333,0,1066.6667)"><g
       id="g12"
       transform="scale(0.1)"><path
         d="m 5001.16,4210.85 c -49.72,-0.01 -100.01,3 -150.7,9.15 H 1310 c -38.66,0 -70,31.34 -70,70 0,38.66 31.34,70 70,70 h 3544.76 c 2.9,0 5.8,-0.18 8.68,-0.54 414.84,-51.88 802.39,132.76 942.57,448.91 119.74,270.08 12.36,534.61 -0.28,563.89 -114.68,265.61 -382.69,441.04 -699.44,457.84 -38.6,2.05 -68.24,35 -66.19,73.61 2.05,38.59 34.96,68.17 73.61,66.19 370.23,-19.63 684.64,-227.37 820.56,-542.16 15.12,-35.03 143.59,-351.62 -0.28,-676.11 -146.9,-331.32 -517.66,-540.77 -932.83,-540.78"
         style="fill:#ffffff;fill-opacity:1;fill-rule:nonzero;stroke:none"
         id="path14" /><path
         d="m 4506.24,2031.4 c -93.44,0 -187.57,17.97 -275.51,53.39 -151.2,60.93 -269.83,169.36 -334.03,305.33 -104.5,221.32 -35.89,441.75 -1.55,526.24 14.57,35.81 55.41,53.04 91.21,38.48 35.81,-14.55 53.04,-55.39 38.49,-91.2 -27.39,-67.38 -82.37,-242.59 -1.55,-413.75 110.08,-233.15 401.58,-316.33 619.79,-261.96 285.61,71.1 441.31,362.39 426.85,602.94 -10.6,176.37 -110.6,295.03 -143.47,334.02 -240.9,285.82 -634.83,262.95 -711.35,255.44 -2.26,-0.22 -4.54,-0.33 -6.81,-0.33 H 1310 c -38.66,0 -70,31.34 -70,70 0,38.66 31.34,70 70,70 h 2894.98 c 96.67,8.96 546.08,30.24 828.55,-304.88 108.01,-128.17 167.28,-268.08 176.16,-415.85 17.89,-297.64 -176.5,-658.5 -532.78,-747.2 -55.54,-13.82 -112.97,-20.67 -170.67,-20.67"
         style="fill:#ffffff;fill-opacity:1;fill-rule:nonzero;stroke:none"
         id="path16" /><path
         d="m 5500.05,2889.98 c -26.07,0 -51.09,14.63 -63.14,39.69 -16.75,34.84 -2.09,76.67 32.76,93.42 164.49,79.09 269.15,237.03 260.44,393 -5.35,95.75 -54.94,191.91 -136.05,263.84 -97.15,86.15 -224.8,128.87 -359.58,120.22 -1.49,-0.1 -2.99,-0.15 -4.48,-0.15 H 2080 c -38.66,0 -70,31.34 -70,70 0,38.66 31.34,70 70,70 h 3147.83 c 171.32,10.42 334.38,-44.71 459.12,-155.32 108.85,-96.53 175.53,-228.03 182.94,-360.77 11.84,-211.87 -124.62,-423.65 -339.56,-527 -9.78,-4.7 -20.11,-6.93 -30.28,-6.93"
         style="fill:#ffffff;fill-opacity:1;fill-rule:nonzero;stroke:none"
         id="path18" /><path
         d="m 5849.92,4030 c -36.11,0 -66.74,27.74 -69.7,64.37 -3.11,38.53 25.61,72.29 64.15,75.41 116.11,9.37 230.64,44.35 331.2,101.17 84.09,47.51 158.36,109.4 220.74,183.97 24.81,29.64 68.95,33.57 98.61,8.77 29.65,-24.81 33.58,-68.95 8.77,-98.61 -73.23,-87.52 -160.46,-160.21 -259.26,-216.03 -118.12,-66.74 -252.57,-107.83 -388.8,-118.83 -1.91,-0.15 -3.82,-0.22 -5.71,-0.22"
         style="fill:#ffffff;fill-opacity:1;fill-rule:nonzero;stroke:none"
         id="path20" /><path
         d="m 6165.17,4243.19 c 38.65,-37.81 163,-144.36 311.02,-114.57 166.61,33.54 234.86,214.31 256.47,290.48 42.78,150.83 2.28,320.62 -106.19,465.79 -19.65,-66.98 -51.33,-124.56 -94.8,-172.12 -65.44,-71.58 -137.01,-98.44 -200.16,-122.14 -53.13,-19.94 -95.08,-35.68 -127.41,-75.05 -46.55,-56.69 -59.62,-148.27 -38.93,-272.39 z m 258.32,-259.85 c -215.95,0 -369.09,172.45 -376.25,180.65 -8.16,9.36 -13.68,20.72 -16,32.91 -33.72,177.08 -11.96,314.19 64.66,407.52 56.17,68.4 125.36,94.38 186.42,117.29 55.4,20.79 103.26,38.74 146.01,85.52 50.57,55.32 78.06,134.49 81.71,235.31 1,27.3 17.78,51.53 42.99,62.06 25.23,10.53 54.25,5.42 74.36,-13.08 215.99,-198.65 307.94,-470.94 239.95,-710.62 -28.62,-100.89 -121.33,-340.77 -363.53,-389.52 -27.56,-5.55 -54.42,-8.04 -80.32,-8.04"
         style="fill:#ffffff;fill-opacity:1;fill-rule:nonzero;stroke:none"
         id="path22" /><path
         d="m 5907.34,2275.77 c -5.7,0 -11.5,0.7 -17.28,2.18 -67.59,17.17 -130.73,45.99 -187.65,85.65 -68.04,47.44 -126.26,110.62 -168.36,182.74 -19.49,33.39 -8.22,76.25 25.16,95.74 33.38,19.5 76.25,8.24 95.75,-25.16 31.92,-54.69 76.02,-102.57 127.51,-138.46 43.05,-30 90.85,-51.82 142.05,-64.83 37.47,-9.51 60.13,-47.6 50.62,-85.08 -8.06,-31.68 -36.54,-52.78 -67.8,-52.78"
         style="fill:#ffffff;fill-opacity:1;fill-rule:nonzero;stroke:none"
         id="path24" /><path
         d="m 5773.5,2434.29 c -9.34,-31.79 -23.17,-102.3 16.72,-155.16 49.65,-65.81 147.88,-56.81 187.8,-49.87 64.81,11.22 123.42,51.07 166.98,110.59 -23.09,0.86 -45.57,4.57 -67.38,11.15 -60.62,18.26 -96.86,52.98 -125.99,80.88 -24.2,23.2 -37.77,35.53 -57.88,40.44 -37.16,9.09 -83.34,-13.33 -120.25,-38.03 z m 149.48,-350.01 c -103.45,0 -190.18,38.5 -244.51,110.51 -81.36,107.82 -55.87,246.46 -27.98,311.39 4.91,11.41 12.75,21.31 22.74,28.69 91.47,67.52 176.85,92.27 253.75,73.45 57.54,-14.05 93.01,-48.04 121.5,-75.34 22.97,-21.99 41.1,-39.37 69.54,-47.94 34.77,-10.48 76.26,-5.38 123.31,15.17 25.04,10.95 54.14,6.3 74.56,-11.86 20.4,-18.17 28.38,-46.55 20.41,-72.69 -52.87,-173.51 -181,-297.79 -334.38,-324.35 -27.17,-4.71 -53.56,-7.03 -78.94,-7.03"
         style="fill:#ffffff;fill-opacity:1;fill-rule:nonzero;stroke:none"
         id="path26" /></g></g></svg>
